<?xml version="1.0" encoding="UTF-8"?><svg id="Layer_2" xmlns="http://www.w3.org/2000/svg" viewBox="0 0 1455.33 151.69"><defs><style>.cls-1{fill:#024546;}.cls-1,.cls-2{stroke-width:0px;}.cls-2{fill:#a9c537;}</style></defs><g id="Layer_1-2"><path class="cls-2" d="M75.87,151.69C33.91,151.82-.6,117.32,0,74.71.6,33.33,34.72-.64,77.1,0c41.34.63,75.27,34.76,74.6,77.13-.66,41.19-34.38,74.64-75.83,74.55Z"/><path class="cls-1" d="M79.98,104.27c1.13-1.29,2.12-2.42,3.11-3.55,4.8-5.45,9.61-10.91,14.41-16.36.73-.83.97-.85,1.79-.13,1.23,1.08,2.45,2.19,3.7,3.24.23.19.67.34.92.25.2-.07.34-.53.36-.83.32-5.84.62-11.68.93-17.52.04-.85-.27-1.1-1.22-.91-3.01.62-6.02,1.25-9.03,1.88-2.64.55-5.29,1.09-7.92,1.67-.28.06-.71.3-.74.5-.04.27.17.66.4.87,1.34,1.23,2.71,2.42,4.07,3.63.63.56.67.88.12,1.51-4.7,5.37-9.41,10.73-14.11,16.1-.13.14-.23.31-.34.47-.07-.04-.14-.07-.2-.11v-.69c0-13.52,0-27.04,0-40.56,0-3.69,2.64-6.33,6.32-6.33,6.83,0,13.65-.03,20.48.01,3.68.02,7.3.44,10.67,2.08,4.3,2.1,6.51,5.62,7.02,10.31.22,2.02.14,4.03-.32,6.01-.75,3.27-2.63,5.71-5.53,7.37-.2.12-.41.23-.72.42.49.22.86.39,1.24.56,4.51,2.09,6.89,5.65,7.34,10.57.27,2.93.08,5.8-.89,8.59-1.65,4.77-5.08,7.72-9.72,9.41-3.2,1.17-6.54,1.56-9.92,1.58-7.09.04-14.18.01-21.28,0-.24,0-.47-.02-.93-.04Z"/><path class="cls-1" d="M28.89,78.66c0-7.56,0-15.11,0-22.67,0-4.77,3.53-8.52,8.31-8.58,5.98-.08,11.96-.02,17.95.03,2.36.02,4.68.4,6.91,1.18,4.62,1.61,7.76,4.74,9.22,9.4,1.61,5.12,1.65,10.31-.04,15.42-1.93,5.81-6.07,9.16-12.03,10.27-1.45.27-2.95.36-4.42.38-3.85.05-7.71.06-11.57,0-1.66-.03-2.62,1.04-2.6,2.62.07,4.96.03,9.93.02,14.89,0,1.8-.9,2.72-2.68,2.72-2.13,0-4.25,0-6.38,0-1.79,0-2.69-.92-2.69-2.71,0-7.64,0-15.29,0-22.93ZM40.78,65.52c0,1.97-.01,3.94,0,5.92.01,1.35.91,2.24,2.26,2.26.97.01,1.95.01,2.92,0,2.74-.04,5.5.01,8.23-.16,3.16-.2,5.44-2.17,6.15-5.09.46-1.9.46-3.82.02-5.73-.58-2.49-2.06-4.2-4.55-4.89-.91-.25-1.87-.4-2.81-.42-3.28-.05-6.56-.03-9.84-.03-1.51,0-2.38.89-2.39,2.41,0,1.91,0,3.81,0,5.72Z"/><path class="cls-2" d="M40.78,65.52c0-1.91,0-3.81,0-5.72,0-1.52.88-2.41,2.39-2.41,3.28,0,6.56-.03,9.84.03.94.01,1.9.16,2.81.42,2.49.69,3.97,2.4,4.55,4.89.44,1.9.44,3.83-.02,5.73-.71,2.92-2.99,4.89-6.15,5.09-2.74.17-5.49.12-8.23.16-.97.01-1.95.01-2.92,0-1.35-.02-2.25-.91-2.26-2.26-.02-1.97,0-3.94,0-5.92Z"/><path class="cls-2" d="M244.43,40.75v9.2h-22.6v56.8h-10.7v-56.8h-22.6v-9.2h55.9Z"/><path class="cls-2" d="M250.73,106.75V34.25h10.7v30.5c1.67-3.13,3.92-5.42,6.75-6.85,2.83-1.43,5.98-2.15,9.45-2.15s6.72.68,9.55,2.05c2.83,1.37,5.08,3.42,6.75,6.15,1.67,2.73,2.5,6.2,2.5,10.4v32.4h-10.7v-29c0-4.93-1.02-8.37-3.05-10.3-2.03-1.93-4.58-2.9-7.65-2.9-2.13,0-4.25.52-6.35,1.55-2.1,1.03-3.83,2.7-5.2,5-1.37,2.3-2.05,5.38-2.05,9.25v26.4h-10.7Z"/><path class="cls-2" d="M329.63,107.75c-5,0-9.4-1.03-13.2-3.1-3.8-2.07-6.75-5.05-8.85-8.95s-3.15-8.55-3.15-13.95,1.05-10.05,3.15-13.95c2.1-3.9,5.02-6.88,8.75-8.95,3.73-2.07,7.97-3.1,12.7-3.1s9,1,12.4,3,6,4.73,7.8,8.2c1.8,3.47,2.7,7.4,2.7,11.8,0,1.2-.03,2.33-.1,3.4-.07,1.07-.17,2-.3,2.8h-40.2v-8.2h35.5l-5.3,1.6c0-4.53-1.13-8.02-3.4-10.45-2.27-2.43-5.37-3.65-9.3-3.65-2.87,0-5.37.67-7.5,2-2.13,1.33-3.77,3.32-4.9,5.95-1.13,2.63-1.7,5.85-1.7,9.65s.6,6.9,1.8,9.5c1.2,2.6,2.9,4.57,5.1,5.9,2.2,1.33,4.8,2,7.8,2,3.33,0,6.03-.63,8.1-1.9,2.07-1.27,3.7-3.03,4.9-5.3l8.5,4c-1.2,2.4-2.82,4.48-4.85,6.25-2.03,1.77-4.45,3.12-7.25,4.05-2.8.93-5.87,1.4-9.2,1.4Z"/><path class="cls-2" d="M385.7,35.66h25.4l-.6,2.89c-2.6,1.13-5.3,1.96-8.1,2.49l-8.6,39.58c-.73,3.52-.93,6.53-.6,9.02.33,2.49,1.13,4.54,2.4,6.13,1.27,1.59,2.94,2.76,5.02,3.49,2.07.73,4.48,1.1,7.22,1.1,5.42,0,9.74-1.5,12.99-4.49,3.24-2.99,5.53-7.71,6.87-14.16l8.5-39.78c-2.93-1-5.33-2.13-7.2-3.39l.6-2.89h21.4l-.7,2.9c-1.13.73-2.47,1.4-4,2-1.53.6-3.03,1.07-4.5,1.4l-8.5,40.1c-1.87,8.73-5.15,15-9.85,18.8-4.7,3.8-10.75,5.7-18.15,5.7-4.4,0-8.12-.63-11.15-1.9-3.03-1.27-5.42-3.02-7.15-5.25-1.73-2.23-2.83-4.9-3.3-8-.47-3.1-.3-6.45.5-10.05l8.6-40.3c-1.33-.27-2.7-.62-4.1-1.05-1.4-.43-2.6-.92-3.6-1.45l.6-2.9Z"/><path class="cls-2" d="M458.5,37.46l-7.1-.9v-2.5c.93-.4,2.02-.8,3.25-1.2,1.23-.4,2.53-.78,3.9-1.15,1.37-.37,2.72-.67,4.05-.9,1.33-.23,2.53-.35,3.6-.35l2,1.1-13.8,68.5h7.3v2.6c-1.33,1.07-2.95,1.93-4.85,2.6-1.9.67-3.75,1-5.55,1-1.93,0-3.35-.43-4.25-1.3-.9-.87-1.35-1.87-1.35-3,0-1.33.1-2.63.3-3.9.2-1.27.47-2.67.8-4.2l11.7-56.4Z"/><path class="cls-2" d="M474.2,58.18c1.33-.76,2.75-1.45,4.25-2.07,1.5-.62,2.98-1.1,4.45-1.45l1.6-7.6c.93-.73,2.02-1.38,3.25-1.95,1.23-.57,2.52-1.12,3.85-1.65l2.1,1.2-2.4,11h12.4c.13.83.13,1.7,0,2.6-.13.9-.47,1.77-1,2.6h-12.4l-6.3,28.85c-.27,1.26-.47,2.37-.6,3.33-.13.96-.2,1.84-.2,2.64,0,1.73.5,2.99,1.5,3.78,1,.8,2.1,1.19,3.3,1.19,1.67,0,3.45-.32,5.35-.95,1.9-.63,3.65-1.35,5.25-2.15l1.1,1.8c-.6.87-1.5,1.73-2.7,2.6-1.2.87-2.55,1.67-4.05,2.4-1.5.73-3.07,1.33-4.7,1.8-1.63.47-3.18.7-4.65.7-2.93,0-5.23-.66-6.9-1.99-1.67-1.33-2.5-3.39-2.5-6.17,0-.93.08-1.96.25-3.09.17-1.13.38-2.29.65-3.49l6.6-31.26h-7.6l.1-2.69Z"/><path class="cls-2" d="M509.5,60.56v-2.5c1-.4,2.13-.82,3.4-1.25,1.27-.43,2.57-.82,3.9-1.15,1.33-.33,2.6-.62,3.8-.85,1.2-.23,2.27-.35,3.2-.35l1.8,1.2-9.4,44.4h7.4v2.6c-1.4,1.07-3.03,1.93-4.9,2.6-1.87.67-3.7,1-5.5,1-1.93,0-3.32-.43-4.15-1.3-.83-.87-1.25-1.87-1.25-3,0-1.33.1-2.63.3-3.9.2-1.27.47-2.67.8-4.2l7-32.3-6.4-1ZM517.6,38.36c0-1.73.53-3.1,1.6-4.1,1.07-1,2.47-1.5,4.2-1.5,1.87,0,3.33.5,4.4,1.5,1.07,1,1.6,2.37,1.6,4.1s-.53,2.97-1.6,3.9c-1.07.93-2.53,1.4-4.4,1.4-1.73,0-3.13-.47-4.2-1.4-1.07-.93-1.6-2.23-1.6-3.9Z"/><path class="cls-2" d="M593.5,75.66c.4-1.6.78-3.27,1.15-5,.37-1.73.58-3.17.65-4.3-.07-1.73-.35-3.12-.85-4.15-.5-1.03-1.52-1.55-3.05-1.55s-3.23.63-4.9,1.9c-1.67,1.27-3.25,2.87-4.75,4.8s-2.87,4.03-4.1,6.3c-1.23,2.27-2.25,4.4-3.05,6.4l-6.1,25.6h-8l6.3-28.1c.47-2.07.87-4.05,1.2-5.95.33-1.9.5-3.88.5-5.95,0-1.53-.27-2.75-.8-3.65-.53-.9-1.47-1.35-2.8-1.35s-2.8.63-4.4,1.9c-1.6,1.27-3.17,2.87-4.7,4.8-1.53,1.93-2.95,4.03-4.25,6.3-1.3,2.27-2.35,4.43-3.15,6.5l-5.3,25.5h-8.6l9.3-44.2-6.1-.9v-2.5c2.2-1.13,4.58-2.02,7.15-2.65,2.57-.63,4.78-.95,6.65-.95l2.1,1.2-4.4,17.7h.4c.8-1.87,1.92-3.9,3.35-6.1,1.43-2.2,3.08-4.25,4.95-6.15,1.87-1.9,3.87-3.48,6-4.75,2.13-1.27,4.27-1.9,6.4-1.9.8,0,1.6.13,2.4.4.8.27,1.5.75,2.1,1.45.6.7,1.1,1.65,1.5,2.85s.6,2.73.6,4.6c0,1.47-.15,3.03-.45,4.7-.3,1.67-.65,3.3-1.05,4.9,1-2.27,2.27-4.52,3.8-6.75,1.53-2.23,3.2-4.25,5-6.05,1.8-1.8,3.72-3.27,5.75-4.4,2.03-1.13,4.12-1.7,6.25-1.7,2.53,0,4.45.8,5.75,2.4,1.3,1.6,1.95,3.8,1.95,6.6,0,2.13-.2,4.15-.6,6.05-.4,1.9-.83,3.95-1.3,6.15l-6.5,24.4h7.4v2.6c-1.33,1.07-2.97,1.93-4.9,2.6-1.93.67-3.77,1-5.5,1-1.93,0-3.27-.43-4-1.3-.73-.87-1.1-1.9-1.1-3.1,0-1.93.47-4.6,1.4-8l4.7-18.2Z"/><path class="cls-2" d="M644.9,86.06c-.87,2.4-1.95,4.83-3.25,7.3-1.3,2.47-2.8,4.7-4.5,6.7s-3.58,3.63-5.65,4.9c-2.07,1.27-4.27,1.9-6.6,1.9-6.93,0-10.4-5.03-10.4-15.1,0-4.67.67-9.22,2-13.65,1.33-4.43,3.27-8.38,5.8-11.85,2.53-3.47,5.62-6.25,9.25-8.35,3.63-2.1,7.75-3.15,12.35-3.15,1.66,0,3,.15,4,.45s2.2.75,3.6,1.35c2.67-1.4,5.47-2.1,8.4-2.1l-9,45.6h7.3v2.54c-1.33,1.08-2.93,1.97-4.8,2.64-1.87.68-3.7,1.02-5.5,1.02-1.93,0-3.32-.42-4.15-1.25-.83-.83-1.25-1.72-1.25-2.65,0-1.2.23-3.17.7-5.9.47-2.73,1.17-6.2,2.1-10.4h-.4ZM629.1,100.66c1.8,0,3.6-.85,5.4-2.55,1.8-1.7,3.5-3.75,5.1-6.14,1.6-2.39,3.03-4.89,4.3-7.48,1.27-2.59,2.27-4.75,3-6.48l3.2-17.05c-.93-.66-1.83-1.13-2.7-1.4-.87-.27-2.07-.4-3.6-.4-3.07,0-5.85.95-8.35,2.84s-4.63,4.34-6.4,7.33c-1.77,2.99-3.13,6.32-4.1,9.98-.97,3.66-1.45,7.25-1.45,10.77s.42,6,1.25,7.83c.83,1.83,2.28,2.74,4.35,2.74Z"/><path class="cls-2" d="M669.1,58.18c1.33-.76,2.75-1.45,4.25-2.07,1.5-.62,2.98-1.1,4.45-1.45l1.6-7.6c.93-.73,2.02-1.38,3.25-1.95,1.23-.57,2.52-1.12,3.85-1.65l2.1,1.2-2.4,11h12.4c.13.83.13,1.7,0,2.6-.13.9-.47,1.77-1,2.6h-12.4l-6.3,28.85c-.27,1.26-.47,2.37-.6,3.33-.13.96-.2,1.84-.2,2.64,0,1.73.5,2.99,1.5,3.78,1,.8,2.1,1.19,3.3,1.19,1.67,0,3.45-.32,5.35-.95,1.9-.63,3.65-1.35,5.25-2.15l1.1,1.8c-.6.87-1.5,1.73-2.7,2.6-1.2.87-2.55,1.67-4.05,2.4-1.5.73-3.07,1.33-4.7,1.8-1.63.47-3.18.7-4.65.7-2.93,0-5.23-.66-6.9-1.99-1.67-1.33-2.5-3.39-2.5-6.17,0-.93.08-1.96.25-3.09.17-1.13.38-2.29.65-3.49l6.6-31.26h-7.6l.1-2.69Z"/><path class="cls-2" d="M736.6,96.76c-.6,1.27-1.47,2.5-2.6,3.7-1.13,1.2-2.47,2.28-4,3.25-1.53.97-3.27,1.73-5.2,2.3-1.93.57-4,.85-6.2.85-5.53,0-9.78-1.58-12.75-4.75-2.97-3.17-4.45-7.55-4.45-13.15,0-4.73.67-9.2,2-13.4,1.33-4.2,3.2-7.87,5.6-11,2.4-3.13,5.32-5.6,8.75-7.4s7.25-2.7,11.45-2.7c3.2,0,5.95.82,8.25,2.45,2.3,1.63,3.45,4.05,3.45,7.25,0,4.73-2.35,8.47-7.05,11.2-4.7,2.73-12.28,4.5-22.75,5.3-.27,1.13-.45,2.23-.55,3.3-.1,1.07-.15,2.1-.15,3.1,0,4,1.02,7.27,3.05,9.8,2.03,2.53,5.02,3.8,8.95,3.8,1.27,0,2.52-.2,3.75-.6,1.23-.4,2.4-.9,3.5-1.5,1.1-.6,2.1-1.23,3-1.9.9-.67,1.68-1.27,2.35-1.8l1.6,1.9ZM726.1,58.86c-2.87.07-5.53,1.4-8,4-2.47,2.6-4.57,7.07-6.3,13.4,6.46-.2,11.5-1.3,15.1-3.31,3.6-2.01,5.4-4.8,5.4-8.35,0-1.38-.42-2.67-1.25-3.86-.83-1.19-2.48-1.81-4.95-1.88Z"/><path class="cls-2" d="M795.71,38.06c10.33,0,18.38,2.85,24.15,8.55,5.77,5.7,8.65,13.85,8.65,24.45s-2.88,18.75-8.65,24.45c-5.77,5.7-13.82,8.55-24.15,8.55h-23.3V38.06h23.3ZM795.71,94.96c7,0,12.35-2.08,16.05-6.25,3.7-4.17,5.55-10.05,5.55-17.65s-1.85-13.48-5.55-17.65c-3.7-4.17-9.05-6.25-16.05-6.25h-12.6v47.8h12.6Z"/><path class="cls-2" d="M866.81,71.96c0-3.33-.92-5.92-2.75-7.75-1.83-1.83-4.35-2.75-7.55-2.75-3,0-5.57.7-7.7,2.1-2.13,1.4-3.7,3.67-4.7,6.8l-9-3.8c1.27-4.07,3.75-7.33,7.45-9.8,3.7-2.47,8.48-3.7,14.35-3.7,4,0,7.53.65,10.6,1.95,3.07,1.3,5.48,3.25,7.25,5.85,1.77,2.6,2.65,5.93,2.65,10v22.3c0,2.47,1.23,3.7,3.7,3.7,1.2,0,2.37-.17,3.5-.5l-.6,7.4c-1.53.73-3.47,1.1-5.8,1.1-2.13,0-4.05-.38-5.75-1.15-1.7-.77-3.04-1.93-4-3.5-.97-1.57-1.45-3.52-1.45-5.85v-.7l2.2-.1c-.6,2.6-1.83,4.75-3.7,6.45-1.87,1.7-4.03,2.97-6.5,3.8-2.47.83-4.97,1.25-7.5,1.25-3.13,0-5.95-.5-8.45-1.5s-4.47-2.52-5.9-4.55c-1.43-2.03-2.15-4.55-2.15-7.55,0-3.73,1.22-6.8,3.65-9.2,2.43-2.4,5.88-4.03,10.35-4.9l19.4-3.8-.1,7.5-14.1,2.9c-2.8.54-4.9,1.3-6.3,2.3-1.4,1-2.1,2.47-2.1,4.4s.72,3.35,2.15,4.45c1.43,1.1,3.35,1.65,5.75,1.65,1.67,0,3.28-.2,4.85-.6,1.57-.4,2.98-1.05,4.25-1.95,1.27-.9,2.25-2.07,2.95-3.5.7-1.43,1.05-3.15,1.05-5.15v-13.6Z"/><path class="cls-2" d="M921.71,54.06v8.4h-37.5v-8.4h37.5ZM904.51,39.36v49.7c0,2.47.65,4.27,1.95,5.4,1.3,1.13,3.05,1.7,5.25,1.7,1.8,0,3.37-.28,4.7-.85,1.33-.57,2.56-1.35,3.7-2.35l2.4,7.8c-1.54,1.33-3.42,2.38-5.65,3.15-2.23.77-4.72,1.15-7.45,1.15-2.87,0-5.5-.47-7.9-1.4s-4.27-2.45-5.6-4.55c-1.33-2.1-2.03-4.85-2.1-8.25v-48.5l10.7-3Z"/><path class="cls-2" d="M956.21,71.96c0-3.33-.92-5.92-2.75-7.75-1.83-1.83-4.35-2.75-7.55-2.75-3,0-5.57.7-7.7,2.1-2.13,1.4-3.7,3.67-4.7,6.8l-9-3.8c1.27-4.07,3.75-7.33,7.45-9.8,3.7-2.47,8.48-3.7,14.35-3.7,4,0,7.53.65,10.6,1.95,3.07,1.3,5.48,3.25,7.25,5.85,1.77,2.6,2.65,5.93,2.65,10v22.3c0,2.47,1.23,3.7,3.7,3.7,1.2,0,2.37-.17,3.5-.5l-.6,7.4c-1.54.73-3.47,1.1-5.8,1.1-2.13,0-4.05-.38-5.75-1.15-1.7-.77-3.03-1.93-4-3.5-.97-1.57-1.45-3.52-1.45-5.85v-.7l2.2-.1c-.6,2.6-1.83,4.75-3.7,6.45-1.87,1.7-4.04,2.97-6.5,3.8-2.47.83-4.97,1.25-7.5,1.25-3.13,0-5.95-.5-8.45-1.5s-4.47-2.52-5.9-4.55c-1.43-2.03-2.15-4.55-2.15-7.55,0-3.73,1.21-6.8,3.65-9.2,2.43-2.4,5.88-4.03,10.35-4.9l19.4-3.8-.1,7.5-14.1,2.9c-2.8.54-4.9,1.3-6.3,2.3-1.4,1-2.1,2.47-2.1,4.4s.72,3.35,2.15,4.45,3.35,1.65,5.75,1.65c1.67,0,3.28-.2,4.85-.6,1.57-.4,2.98-1.05,4.25-1.95,1.27-.9,2.25-2.07,2.95-3.5.7-1.43,1.05-3.15,1.05-5.15v-13.6Z"/><path class="cls-2" d="M1016.23,38.06v66h-10.7V38.06h10.7ZM1054.23,66.06v9.2h-43.3v-9.2h43.3ZM1059.62,38.06v66h-10.8V38.06h10.8Z"/><path class="cls-2" d="M1101.53,71.96c0-3.33-.92-5.92-2.75-7.75-1.83-1.83-4.35-2.75-7.55-2.75-3,0-5.57.7-7.7,2.1-2.13,1.4-3.7,3.67-4.7,6.8l-9-3.8c1.27-4.07,3.75-7.33,7.45-9.8,3.7-2.47,8.48-3.7,14.35-3.7,4,0,7.53.65,10.6,1.95,3.07,1.3,5.48,3.25,7.25,5.85,1.77,2.6,2.65,5.93,2.65,10v22.3c0,2.47,1.23,3.7,3.7,3.7,1.2,0,2.37-.17,3.5-.5l-.6,7.4c-1.54.73-3.47,1.1-5.8,1.1-2.13,0-4.05-.38-5.75-1.15-1.7-.77-3.03-1.93-4-3.5-.97-1.57-1.45-3.52-1.45-5.85v-.7l2.2-.1c-.6,2.6-1.83,4.75-3.7,6.45-1.87,1.7-4.04,2.97-6.5,3.8-2.47.83-4.97,1.25-7.5,1.25-3.13,0-5.95-.5-8.45-1.5s-4.47-2.52-5.9-4.55c-1.43-2.03-2.15-4.55-2.15-7.55,0-3.73,1.21-6.8,3.65-9.2,2.43-2.4,5.88-4.03,10.35-4.9l19.4-3.8-.1,7.5-14.1,2.9c-2.8.54-4.9,1.3-6.3,2.3-1.4,1-2.1,2.47-2.1,4.4s.72,3.35,2.15,4.45,3.35,1.65,5.75,1.65c1.67,0,3.28-.2,4.85-.6,1.57-.4,2.98-1.05,4.25-1.95,1.27-.9,2.25-2.07,2.95-3.5.7-1.43,1.05-3.15,1.05-5.15v-13.6Z"/><path class="cls-2" d="M1124.62,104.06v-50h9.5l.7,13-1.4-1.4c.93-2.87,2.28-5.25,4.05-7.15,1.77-1.9,3.87-3.28,6.3-4.15,2.43-.87,5.02-1.3,7.75-1.3,3.53,0,6.72.68,9.55,2.05,2.83,1.37,5.08,3.42,6.75,6.15,1.67,2.73,2.5,6.2,2.5,10.4v32.4h-10.7v-29.1c0-4.93-1.02-8.35-3.05-10.25-2.03-1.9-4.58-2.85-7.65-2.85-2.2,0-4.33.52-6.4,1.55-2.07,1.03-3.78,2.68-5.15,4.95-1.37,2.27-2.05,5.3-2.05,9.1v26.6h-10.7Z"/><path class="cls-2" d="M1200.73,105.06c-4.13,0-7.88-1.03-11.25-3.1-3.37-2.07-6.02-5.03-7.95-8.9-1.93-3.87-2.9-8.5-2.9-13.9s1.03-10.33,3.1-14.2c2.07-3.87,4.83-6.82,8.3-8.85,3.47-2.03,7.27-3.05,11.4-3.05s7.87,1.17,10.8,3.5c2.93,2.33,4.9,5.37,5.9,9.1l-1.2,1.1V31.56h10.7v72.5h-9.5l-.8-13.6,1.4.1c-.47,3-1.57,5.58-3.3,7.75-1.73,2.17-3.88,3.83-6.45,5-2.57,1.17-5.32,1.75-8.25,1.75ZM1203.03,96.46c2.87,0,5.33-.73,7.4-2.2,2.07-1.47,3.67-3.53,4.8-6.2,1.13-2.67,1.7-5.87,1.7-9.6,0-3.46-.57-6.45-1.7-8.95-1.13-2.5-2.72-4.42-4.75-5.75-2.03-1.33-4.38-2-7.05-2-4.47,0-7.93,1.53-10.4,4.6-2.47,3.07-3.7,7.3-3.7,12.7s1.2,9.65,3.6,12.75c2.4,3.1,5.77,4.65,10.1,4.65Z"/><path class="cls-2" d="M1266.03,105.06c-2.93,0-5.62-.57-8.05-1.7-2.43-1.13-4.48-2.72-6.15-4.75-1.67-2.03-2.9-4.32-3.7-6.85l1.3-1.7-.8,14h-9.4V31.56h10.7v35.1l-1.2-1.7c1.27-3.46,3.43-6.32,6.5-8.55,3.07-2.23,6.77-3.35,11.1-3.35,4,0,7.68,1.03,11.05,3.1,3.37,2.07,6.02,5.03,7.95,8.9,1.93,3.87,2.9,8.57,2.9,14.1s-.98,10.03-2.95,13.9c-1.97,3.87-4.63,6.83-8,8.9-3.37,2.07-7.12,3.1-11.25,3.1ZM1263.73,96.46c4.33,0,7.72-1.55,10.15-4.65,2.43-3.1,3.65-7.35,3.65-12.75s-1.2-9.63-3.6-12.7c-2.4-3.07-5.77-4.6-10.1-4.6-2.8,0-5.23.72-7.3,2.15-2.07,1.43-3.68,3.45-4.85,6.05-1.17,2.6-1.75,5.7-1.75,9.3s.57,6.58,1.7,9.15c1.13,2.57,2.75,4.55,4.85,5.95,2.1,1.4,4.52,2.1,7.25,2.1Z"/><path class="cls-2" d="M1318.63,53.06c4.87,0,9.17,1.03,12.9,3.1,3.73,2.07,6.65,5.05,8.75,8.95,2.1,3.9,3.15,8.55,3.15,13.95s-1.05,10.05-3.15,13.95c-2.1,3.9-5.02,6.88-8.75,8.95-3.73,2.07-8.04,3.1-12.9,3.1s-9.17-1.03-12.9-3.1c-3.73-2.07-6.67-5.05-8.8-8.95-2.13-3.9-3.2-8.55-3.2-13.95s1.07-10.05,3.2-13.95c2.13-3.9,5.07-6.88,8.8-8.95,3.73-2.07,8.03-3.1,12.9-3.1ZM1318.63,61.46c-3,0-5.55.68-7.65,2.05-2.1,1.37-3.72,3.35-4.85,5.95-1.13,2.6-1.7,5.8-1.7,9.6s.57,6.92,1.7,9.55c1.13,2.63,2.75,4.63,4.85,6,2.1,1.37,4.65,2.05,7.65,2.05s5.53-.68,7.6-2.05c2.07-1.37,3.67-3.37,4.8-6,1.13-2.63,1.7-5.82,1.7-9.55s-.57-7-1.7-9.6c-1.13-2.6-2.73-4.58-4.8-5.95-2.07-1.37-4.6-2.05-7.6-2.05Z"/><path class="cls-2" d="M1373.63,53.06c4.87,0,9.17,1.03,12.9,3.1,3.73,2.07,6.65,5.05,8.75,8.95,2.1,3.9,3.15,8.55,3.15,13.95s-1.05,10.05-3.15,13.95c-2.1,3.9-5.02,6.88-8.75,8.95-3.73,2.07-8.04,3.1-12.9,3.1s-9.17-1.03-12.9-3.1c-3.73-2.07-6.67-5.05-8.8-8.95-2.13-3.9-3.2-8.55-3.2-13.95s1.07-10.05,3.2-13.95c2.13-3.9,5.07-6.88,8.8-8.95,3.73-2.07,8.03-3.1,12.9-3.1ZM1373.63,61.46c-3,0-5.55.68-7.65,2.05-2.1,1.37-3.72,3.35-4.85,5.95-1.13,2.6-1.7,5.8-1.7,9.6s.57,6.92,1.7,9.55c1.13,2.63,2.75,4.63,4.85,6,2.1,1.37,4.65,2.05,7.65,2.05s5.53-.68,7.6-2.05c2.07-1.37,3.67-3.37,4.8-6,1.13-2.63,1.7-5.82,1.7-9.55s-.57-7-1.7-9.6c-1.13-2.6-2.73-4.58-4.8-5.95-2.07-1.37-4.6-2.05-7.6-2.05Z"/><path class="cls-2" d="M1417.63,31.56v72.5h-10.7V31.56h10.7ZM1454.13,54.06l-22.3,22.8-2.3,1.6-15.7,16.3-.1-12.2,27.7-28.5h12.7ZM1433.13,70.86l22.2,33.2h-12.4l-17.8-27.1,8-6.1Z"/></g></svg>