<?xml version="1.0" encoding="UTF-8"?><svg id="Layer_2" xmlns="http://www.w3.org/2000/svg" viewBox="0 0 159.71 159.71"><defs><style>.cls-1{fill:#024546;}.cls-1,.cls-2,.cls-3{stroke-width:0px;}.cls-2{fill:#fff;}.cls-3{fill:#a9c537;}</style></defs><g id="Layer_1-2"><path class="cls-2" d="M159.71,159.71H0C0,106.48,0,53.24,0,0,53.24,0,106.48,0,159.71,0v159.71ZM79.94,155.62c41.45.09,75.17-33.36,75.83-74.55.68-42.37-33.26-76.49-74.6-77.13C38.79,3.29,4.66,37.27,4.07,78.64c-.61,42.62,33.9,77.12,75.87,76.98Z"/><path class="cls-1" d="M79.94,155.62c-41.96.14-76.47-34.36-75.87-76.98C4.66,37.27,38.79,3.29,81.17,3.94c41.34.63,75.27,34.76,74.6,77.13-.66,41.19-34.38,74.64-75.83,74.55ZM118.01,77.52c.33-.19.54-.31.75-.42,2.99-1.67,4.91-4.15,5.64-7.51.46-2.12.48-4.26.2-6.41-.56-4.25-2.65-7.45-6.47-9.46-3.05-1.6-6.36-2.18-9.75-2.21-7.31-.06-14.62-.03-21.94-.03-.44,0-.89.01-1.32.1-2.85.6-4.76,3.06-4.76,6.15,0,13.49,0,26.99,0,40.48,0,.19.02.37.04.56.05.03.1.06.15.08.05-.1.09-.21.16-.29,4.72-5.38,9.44-10.76,14.16-16.14.51-.58.49-.86-.11-1.4-1.35-1.21-2.73-2.4-4.06-3.63-.25-.23-.55-.69-.47-.9.11-.29.54-.58.88-.65,5.71-1.2,11.43-2.38,17.15-3.55.75-.15,1.1.12,1.08.88-.02.89-.08,1.77-.13,2.65-.19,4-.39,8.01-.58,12.01-.05.95-.09,1.9-.16,2.85-.03.46.02,1.06-.56,1.14-.33.05-.72-.28-1.08-.45-.08-.04-.13-.11-.2-.17-1.16-1.03-2.32-2.06-3.49-3.08-.54-.48-.85-.45-1.35.08-.12.13-.24.26-.36.39-5.53,6.28-11.07,12.57-16.6,18.86-.15.17-.29.36-.5.63.33.02.52.04.71.04,7.11,0,14.23,0,21.34,0,3.41,0,6.76-.42,9.97-1.62,3.95-1.48,7.07-3.93,8.86-7.84,1.57-3.41,1.79-7,1.35-10.66-.5-4.21-2.58-7.38-6.36-9.37-.68-.36-1.38-.68-2.22-1.08ZM33.08,82.31c0,7.67,0,15.34,0,23,0,.29,0,.58.02.86.11,1.1.91,1.9,2.02,1.91,2.48.03,4.96.03,7.45,0,1.07-.01,1.87-.81,1.98-1.87.03-.31.03-.62.03-.93,0-4.9,0-9.8,0-14.69,0-1.32.47-2.15,1.47-2.49.43-.15.91-.2,1.37-.2,3.86-.01,7.71.02,11.57-.02,1.32-.01,2.66-.07,3.97-.29,5.87-.99,10.09-4.14,12.09-9.82,1.93-5.5,1.87-11.1-.1-16.6-1.37-3.82-4.04-6.5-7.78-8.09-2.48-1.05-5.09-1.54-7.76-1.57-5.98-.05-11.97-.03-17.95-.03-.44,0-.89,0-1.32.08-4.25.74-7.04,4.04-7.05,8.36,0,7.47,0,14.94,0,22.4Z"/><path class="cls-3" d="M118.01,77.52c.83.41,1.54.72,2.22,1.08,3.78,2,5.86,5.16,6.36,9.37.44,3.66.21,7.25-1.35,10.66-1.8,3.91-4.91,6.36-8.86,7.84-3.21,1.21-6.56,1.62-9.97,1.62-7.11,0-14.23,0-21.34,0-.19,0-.38-.02-.71-.04.21-.27.35-.45.5-.63,5.53-6.29,11.07-12.57,16.6-18.86.12-.13.23-.27.36-.39.5-.53.81-.56,1.35-.08,1.17,1.02,2.32,2.05,3.49,3.08.07.06.12.14.2.17.36.17.75.5,1.08.45.58-.08.53-.68.56-1.14.06-.95.11-1.9.16-2.85.19-4,.39-8.01.58-12.01.04-.88.11-1.77.13-2.65.02-.76-.33-1.04-1.08-.88-5.72,1.18-11.44,2.35-17.15,3.55-.34.07-.77.36-.88.65-.08.22.22.68.47.9,1.33,1.23,2.71,2.42,4.06,3.63.6.54.62.82.11,1.4-4.72,5.38-9.44,10.76-14.16,16.14-.07.08-.11.19-.16.29-.05-.03-.1-.06-.15-.08-.01-.19-.04-.37-.04-.56,0-13.49,0-26.99,0-40.48,0-3.08,1.91-5.54,4.76-6.15.43-.09.88-.1,1.32-.1,7.31,0,14.63-.03,21.94.03,3.39.03,6.7.61,9.75,2.21,3.82,2.01,5.91,5.22,6.47,9.46.28,2.15.26,4.29-.2,6.41-.73,3.36-2.65,5.84-5.64,7.51-.21.12-.41.23-.75.42Z"/><path class="cls-3" d="M33.08,82.31c0-7.47,0-14.94,0-22.4,0-4.32,2.79-7.63,7.05-8.36.43-.07.88-.08,1.32-.08,5.98,0,11.97-.02,17.95.03,2.67.02,5.28.51,7.76,1.57,3.75,1.59,6.41,4.28,7.78,8.09,1.97,5.5,2.03,11.1.1,16.6-1.99,5.68-6.22,8.83-12.09,9.82-1.3.22-2.64.28-3.97.29-3.86.04-7.71,0-11.57.02-.46,0-.94.05-1.37.2-1,.34-1.47,1.17-1.47,2.49,0,4.9,0,9.8,0,14.69,0,.31,0,.62-.03.93-.12,1.07-.91,1.86-1.98,1.87-2.48.03-4.96.03-7.45,0-1.11-.01-1.91-.82-2.02-1.91-.03-.29-.02-.58-.02-.86,0-7.67,0-15.34,0-23ZM44.78,69.44c0,2.02,0,4.03,0,6.05,0,1.18.8,2.06,1.97,2.21.31.04.62.06.93.06,2.77,0,5.54.02,8.31,0,.88,0,1.77-.08,2.65-.2,3.24-.47,5.33-2.36,5.94-5.5.23-1.2.25-2.47.2-3.69-.16-4.26-2.98-7-7.23-7.08-2.52-.05-5.05-.05-7.58-.07-1,0-2-.03-2.99.05-1.42.11-2.2.99-2.2,2.4,0,1.93,0,3.86,0,5.78Z"/><path class="cls-1" d="M44.78,69.44c0-1.93,0-3.86,0-5.78,0-1.41.78-2.3,2.2-2.4.99-.07,1.99-.05,2.99-.05,2.53.01,5.05.02,7.58.07,4.26.08,7.08,2.82,7.23,7.08.05,1.23.03,2.49-.2,3.69-.61,3.14-2.71,5.03-5.94,5.5-.87.13-1.76.2-2.65.2-2.77.03-5.54.01-8.31,0-.31,0-.62-.02-.93-.06-1.17-.15-1.96-1.03-1.97-2.21-.01-2.02,0-4.03,0-6.05Z"/></g></svg>