<?xml version="1.0" encoding="UTF-8"?>
<svg id="Layer_1" data-name="Layer 1" xmlns="http://www.w3.org/2000/svg" version="1.1" viewBox="0 0 1200 1200">
  <defs>
    <style>
      .cls-1 {
        fill: #a9c538;
      }

      .cls-1, .cls-2 {
        stroke-width: 0px;
      }

      .cls-2, .cls-3 {
        fill: #004546;
      }
    </style>
  </defs>
  <g>
    <circle class="cls-2" cx="600" cy="600" r="568.1"/>
    <circle class="cls-3" cx="600" cy="600" r="570.5"/>
  </g>
  <g>
    <path class="cls-1" d="M886.1,583.1c33.2-16.3,51.4-43.3,51.4-88.5,0-75.9-53.3-107.9-133.6-107.9h-156.8c-24.5,0-43.9,21.3-43.9,45.8v311.9c9.7-10.8,16.9-18.9,17-19.1l93.8-107.2c1.9-2.2,1.7-5.5-.5-7.4l-34.6-30.7c-3.2-2.9-1.8-8.2,2.4-9.1l133.6-27.6c3.4-.7,6.5,2,6.3,5.4l-6.9,137.2c-.2,4.4-5.4,6.6-8.7,3.7l-32.3-28.6c-2.2-1.9-5.5-1.7-7.4.5l-133.7,151.8h165c92.2,0,155.6-41.4,155.6-129.9s-24.5-84.1-66.5-100.4Z"/>
    <path class="cls-1" d="M442.5,661.5h-91.2c-9.2,0-16.7,7.5-16.7,16.7v118.5c0,9.2-7.5,16.7-16.7,16.7h-53.9c-9.2,0-16.7-7.5-16.7-16.7v-347.5c0-34.4,28.1-62.5,62.5-62.5h126.4c90.3,0,137.4,48.3,137.4,137.4s-45.8,137.4-131.1,137.4ZM420.5,584.3c43.9.6,65.9-20.1,65.9-61.5s-20.7-62.1-61.5-62.1h-72.4c-9.2,0-16.7,7.5-16.7,16.7v90.3c0,9.2,7.5,16.7,16.7,16.7h68Z"/>
  </g>
</svg>